# Blender v2.93.4 OBJ File: 'fancy_icosphere.blend'
# www.blender.org
mtllib projectile_border.mtl
o Icoborder_Icosphere
v 0.000000 -0.104355 0.000000
v 0.075511 -0.046669 0.054862
v -0.028842 -0.046669 0.088769
v -0.093338 -0.046669 0.000000
v -0.028842 -0.046669 -0.088769
v 0.075511 -0.046669 -0.054862
v 0.028842 0.046669 0.088769
v -0.075511 0.046669 0.054862
v -0.075511 0.046669 -0.054862
v 0.028842 0.046669 -0.088769
v 0.093338 0.046669 0.000000
v 0.000000 0.104355 0.000000
v 0.023074 0.046669 0.071015
v -0.060409 0.046669 0.043889
v -0.060409 0.046669 -0.043889
v 0.023074 0.046669 -0.071015
v 0.074670 0.046669 -0.000000
v 0.060409 -0.046669 0.043889
v -0.023074 -0.046669 0.071015
v -0.074670 -0.046669 -0.000000
v -0.023074 -0.046669 -0.071015
v 0.060409 -0.046669 -0.043889
v -0.002580 -0.087658 -0.007940
v -0.077250 -0.041510 -0.007940
v 0.057829 -0.041510 -0.051829
v -0.062989 0.033161 -0.051829
v 0.020494 0.033161 -0.078955
v 0.062989 -0.033161 0.051829
v -0.020494 -0.033161 0.078955
v -0.057829 0.041510 0.051829
v 0.077250 0.041510 0.007940
v 0.002580 0.087658 0.007940
v -0.029828 -0.033161 0.075922
v -0.081424 -0.033161 0.004907
v 0.016320 0.041510 0.075922
v -0.067163 0.041510 -0.038982
v -0.006754 0.087658 0.004907
v 0.006754 -0.087658 -0.004907
v 0.067163 -0.041510 0.038982
v -0.016320 -0.041510 -0.075922
v 0.029828 0.033161 -0.075922
v 0.081424 0.033161 -0.004907
v 0.068757 -0.033161 0.043889
v 0.068757 -0.033161 -0.043889
v 0.031422 0.041510 0.071015
v 0.031422 0.041510 -0.071015
v 0.008348 0.087658 0.000000
v -0.008348 -0.087658 0.000000
v -0.031422 -0.041510 0.071015
v -0.031422 -0.041510 -0.071015
v -0.068757 0.033161 0.043889
v -0.068757 0.033161 -0.043889
v -0.081424 -0.033161 -0.004907
v -0.029828 -0.033161 -0.075922
v -0.067163 0.041510 0.038982
v 0.016320 0.041510 -0.075922
v -0.006754 0.087658 -0.004907
v 0.006754 -0.087658 0.004907
v -0.016320 -0.041510 0.075922
v 0.067163 -0.041510 -0.038982
v 0.029828 0.033161 0.075922
v 0.081424 0.033161 0.004907
v -0.020494 -0.033161 -0.078955
v 0.062989 -0.033161 -0.051829
v -0.057829 0.041510 -0.051829
v 0.077250 0.041510 -0.007940
v 0.002580 0.087658 -0.007940
v -0.002580 -0.087658 0.007940
v 0.057829 -0.041510 0.051829
v -0.077250 -0.041510 0.007940
v 0.020494 0.033161 0.078955
v -0.062989 0.033161 0.051829
vt 0.000000 0.000000
vt 0.000000 0.000000
vt 0.000000 0.000000
vt 0.000000 0.000000
vt 0.000000 0.000000
vt 0.000000 0.000000
vt 0.000000 0.000000
vt 0.000000 0.000000
vt 0.000000 0.000000
vt 0.000000 0.000000
vt 0.000000 0.000000
vt 0.000000 0.000000
vt 0.000000 0.000000
vt 0.000000 0.000000
vt 0.000000 0.000000
vt 0.000000 0.000000
vt 0.000000 0.000000
vt 0.000000 0.000000
vt 0.000000 0.000000
vt 0.000000 0.000000
vt 0.000000 0.000000
vt 0.000000 0.000000
vt 0.000000 0.000000
vt 0.000000 0.000000
vt 0.000000 0.000000
vt 0.000000 0.000000
vt 0.000000 0.000000
vt 0.000000 0.000000
vt 0.000000 0.000000
vt 0.000000 0.000000
vt 0.000000 0.000000
vt 0.000000 0.000000
vt 0.000000 0.000000
vt 0.000000 0.000000
vt 0.000000 0.000000
vt 0.000000 0.000000
vt 0.000000 0.000000
vt 0.000000 0.000000
vt 0.000000 0.000000
vt 0.000000 0.000000
vt 0.000000 0.000000
vt 0.000000 0.000000
vt 0.000000 0.000000
vt 0.000000 0.000000
vt 0.000000 0.000000
vt 0.000000 0.000000
vt 0.000000 0.000000
vt 0.000000 0.000000
vt 0.000000 0.000000
vt 0.000000 0.000000
vt 0.000000 0.000000
vt 0.000000 0.000000
vt 0.000000 0.000000
vt 0.000000 0.000000
vt 0.000000 0.000000
vt 0.000000 0.000000
vt 0.000000 0.000000
vt 0.000000 0.000000
vt 0.000000 0.000000
vt 0.000000 0.000000
vt 0.000000 0.000000
vt 0.000000 0.000000
vt 0.000000 0.000000
vt 0.000000 0.000000
vt 0.000000 0.000000
vt 0.000000 0.000000
vt 0.000000 0.000000
vt 0.000000 0.000000
vt 0.000000 0.000000
vt 0.000000 0.000000
vt 0.000000 0.000000
vt 0.000000 0.000000
vn 0.2764 0.4472 0.8507
vn -0.2764 -0.4472 -0.8507
vn 0.0000 -1.0000 0.0000
vn 0.0000 1.0000 0.0000
vn -0.7236 0.4472 0.5257
vn 0.7236 -0.4472 -0.5257
vn 0.8944 0.4472 -0.0000
vn -0.8944 -0.4472 -0.0000
vn -0.7236 0.4472 -0.5257
vn 0.7236 -0.4472 0.5257
vn 0.2764 0.4472 -0.8507
vn -0.2764 -0.4472 0.8507
usemtl None
s off
f 2/1/1 29/2/1 3/3/1
f 11/4/1 32/5/1 31/6/1
f 29/2/1 8/7/1 3/3/1
f 11/4/1 28/8/1 2/1/1
f 8/7/1 32/5/1 12/9/1
f 23/10/2 6/11/2 1/12/2
f 4/13/2 26/14/2 24/15/2
f 27/16/2 9/17/2 10/18/2
f 4/13/2 23/10/2 1/12/2
f 6/11/2 27/16/2 10/18/2
f 6/11/3 21/19/3 5/20/3
f 2/1/3 19/21/3 18/22/3
f 3/3/3 20/23/3 19/21/3
f 5/20/3 20/23/3 4/13/3
f 2/1/3 22/24/3 6/11/3
f 17/25/4 7/26/4 11/4/4
f 14/27/4 9/17/4 8/7/4
f 10/18/4 17/25/4 11/4/4
f 13/28/4 8/7/4 7/26/4
f 9/17/4 16/29/4 10/18/4
f 37/30/5 7/26/5 12/9/5
f 7/26/5 33/31/5 3/3/5
f 9/17/5 37/30/5 12/9/5
f 3/3/5 34/32/5 4/13/5
f 9/17/5 34/32/5 36/33/5
f 5/20/6 38/34/6 1/12/6
f 38/34/6 2/1/6 1/12/6
f 2/1/6 42/35/6 11/4/6
f 5/20/6 41/36/6 40/37/6
f 42/35/6 10/18/6 11/4/6
f 47/38/7 10/18/7 12/9/7
f 10/18/7 44/39/7 6/11/7
f 6/11/7 43/40/7 2/1/7
f 7/26/7 47/38/7 12/9/7
f 43/40/7 7/26/7 2/1/7
f 48/41/8 5/20/8 1/12/8
f 5/20/8 52/42/8 9/17/8
f 51/43/8 3/3/8 8/7/8
f 52/42/8 8/7/8 9/17/8
f 3/3/8 48/41/8 1/12/8
f 10/18/9 57/44/9 12/9/9
f 8/7/9 57/44/9 55/45/9
f 8/7/9 53/46/9 4/13/9
f 5/20/9 53/46/9 54/47/9
f 10/18/9 54/47/9 56/48/9
f 3/3/10 61/49/10 7/26/10
f 6/11/10 58/50/10 1/12/10
f 58/50/10 3/3/10 1/12/10
f 6/11/10 62/51/10 60/52/10
f 7/26/10 62/51/10 11/4/10
f 9/17/11 63/53/11 5/20/11
f 9/17/11 67/54/11 65/55/11
f 11/4/11 67/54/11 12/9/11
f 11/4/11 64/56/11 66/57/11
f 6/11/11 63/53/11 64/56/11
f 68/58/12 4/13/12 1/12/12
f 4/13/12 72/59/12 8/7/12
f 2/1/12 68/58/12 1/12/12
f 8/7/12 71/60/12 7/26/12
f 71/60/12 2/1/12 7/26/12
f 2/1/1 28/8/1 29/2/1
f 11/4/1 12/9/1 32/5/1
f 29/2/1 30/61/1 8/7/1
f 11/4/1 31/6/1 28/8/1
f 8/7/1 30/61/1 32/5/1
f 23/10/2 25/62/2 6/11/2
f 4/13/2 9/17/2 26/14/2
f 27/16/2 26/14/2 9/17/2
f 4/13/2 24/15/2 23/10/2
f 6/11/2 25/62/2 27/16/2
f 6/11/3 22/24/3 21/19/3
f 2/1/3 3/3/3 19/21/3
f 3/3/3 4/13/3 20/23/3
f 5/20/3 21/19/3 20/23/3
f 2/1/3 18/22/3 22/24/3
f 17/25/4 13/28/4 7/26/4
f 14/27/4 15/63/4 9/17/4
f 10/18/4 16/29/4 17/25/4
f 13/28/4 14/27/4 8/7/4
f 9/17/4 15/63/4 16/29/4
f 37/30/5 35/64/5 7/26/5
f 7/26/5 35/64/5 33/31/5
f 9/17/5 36/33/5 37/30/5
f 3/3/5 33/31/5 34/32/5
f 9/17/5 4/13/5 34/32/5
f 5/20/6 40/37/6 38/34/6
f 38/34/6 39/65/6 2/1/6
f 2/1/6 39/65/6 42/35/6
f 5/20/6 10/18/6 41/36/6
f 42/35/6 41/36/6 10/18/6
f 47/38/7 46/66/7 10/18/7
f 10/18/7 46/66/7 44/39/7
f 6/11/7 44/39/7 43/40/7
f 7/26/7 45/67/7 47/38/7
f 43/40/7 45/67/7 7/26/7
f 48/41/8 50/68/8 5/20/8
f 5/20/8 50/68/8 52/42/8
f 51/43/8 49/69/8 3/3/8
f 52/42/8 51/43/8 8/7/8
f 3/3/8 49/69/8 48/41/8
f 10/18/9 56/48/9 57/44/9
f 8/7/9 12/9/9 57/44/9
f 8/7/9 55/45/9 53/46/9
f 5/20/9 4/13/9 53/46/9
f 10/18/9 5/20/9 54/47/9
f 3/3/10 59/70/10 61/49/10
f 6/11/10 60/52/10 58/50/10
f 58/50/10 59/70/10 3/3/10
f 6/11/10 11/4/10 62/51/10
f 7/26/10 61/49/10 62/51/10
f 9/17/11 65/55/11 63/53/11
f 9/17/11 12/9/11 67/54/11
f 11/4/11 66/57/11 67/54/11
f 11/4/11 6/11/11 64/56/11
f 6/11/11 5/20/11 63/53/11
f 68/58/12 70/71/12 4/13/12
f 4/13/12 70/71/12 72/59/12
f 2/1/12 69/72/12 68/58/12
f 8/7/12 72/59/12 71/60/12
f 71/60/12 69/72/12 2/1/12
