# Blender v2.93.4 OBJ File: ''
# www.blender.org
mtllib spaceship.mtl
o Cube_Cube.001
v 0.093362 -1.745610 1.627472
v -0.243545 -2.614130 1.337194
v 0.093362 -2.598335 1.371974
v -0.344618 0.996293 1.076309
v 0.093362 1.216881 1.279401
v 0.093362 3.441778 0.302328
v -1.321649 -2.300962 1.283289
v -2.321649 -2.036944 0.915386
v -2.563150 -2.734957 0.915386
v 0.712789 -1.618866 1.332939
v 1.508373 -1.470940 1.283289
v 0.767177 -0.194912 1.167105
v -0.526065 -1.618866 1.332939
v -1.321649 -1.470940 1.283289
v 0.531341 0.996293 1.076309
v 1.508373 -2.300961 1.283289
v 2.508373 -2.036944 0.915386
v 0.430269 -2.614130 1.337194
v -0.359042 -1.399791 1.510508
v -0.580453 -0.194912 1.167105
v 0.093362 -1.439603 1.782030
v 0.545766 -1.399791 1.510508
v 0.568567 -0.196738 1.288879
v -0.177814 0.844185 1.212685
v -0.381844 -0.196738 1.288879
v 0.364538 0.844185 1.212685
v 0.093362 0.994097 1.370900
v 2.749874 -2.734957 0.915386
v 0.568567 -0.173941 1.415238
v 0.545766 -1.376994 1.636866
v -0.381844 -0.173941 1.415238
v -0.359042 -1.376994 1.636866
v 0.093362 -1.416807 1.908388
v 0.093362 0.084923 1.676510
v -0.122638 -2.588856 1.216287
v 0.309362 -2.588856 0.784287
v -0.122638 -2.588856 0.784287
v 0.309362 -2.588856 1.216287
v 0.309362 -3.020855 0.784287
v -0.033554 -3.020855 1.127203
v 0.220278 -2.873081 1.127203
v 0.220278 -3.020855 1.127203
v -0.122638 -3.020855 1.216287
v -0.122638 -3.020855 0.784287
v 0.309362 -3.020855 1.216287
v 0.220278 -3.020855 0.873371
v -0.033554 -3.020855 0.873371
v -0.033554 -2.873081 0.873371
v 0.220278 -2.873081 0.873371
v -0.033554 -2.873081 1.127203
v 1.246296 -0.170940 1.038210
v 0.970450 -0.482744 1.038210
v 0.970450 -0.170940 1.038210
v 1.308373 -0.170940 1.100287
v 1.308373 -1.570940 0.700287
v 1.308373 -0.170940 0.700287
v 1.308373 -1.570940 1.100287
v 0.908373 -1.570940 0.700287
v 0.908373 -1.570940 1.100287
v 0.908373 -0.170940 0.700287
v 1.246296 -0.170940 0.762364
v 0.970450 -0.170940 0.762364
v 0.908373 -0.170940 1.100287
v 1.246296 -0.482744 0.762364
v 0.970450 -0.482744 0.762364
v 1.246296 -0.482744 1.038210
v -0.753704 -0.170940 1.038210
v -1.029550 -0.482744 1.038210
v -1.029550 -0.170940 1.038210
v -0.691627 -0.170940 1.100287
v -0.691627 -1.570940 0.700287
v -0.691627 -0.170940 0.700287
v -0.691627 -1.570940 1.100287
v -1.091627 -1.570940 0.700287
v -1.091627 -1.570940 1.100287
v -1.091627 -0.170940 0.700287
v -0.753704 -0.170940 0.762364
v -1.029550 -0.170940 0.762364
v -1.091627 -0.170940 1.100287
v -0.753704 -0.482744 0.762364
v -1.029550 -0.482744 0.762364
v -0.753704 -0.482744 1.038210
v 0.737529 -1.642609 0.476824
v 1.508373 -1.470940 0.717284
v 1.508373 -2.300961 0.717284
v -0.344618 0.780089 0.240036
v 0.093362 -1.667501 0.194830
v -0.580453 -0.212136 0.326472
v 0.093362 0.114050 0.000287
v -0.243545 -2.614130 0.663379
v -0.550805 -1.642609 0.476824
v -1.321649 -1.470940 0.717284
v 0.767177 -0.212136 0.326472
v -1.321649 -2.300962 0.717284
v 0.531341 0.780089 0.240036
v 0.093362 0.936750 -0.015626
v 0.093362 -2.625041 0.603560
v 0.430269 -2.614130 0.663379
vt 0.241940 0.464493
vt 0.268585 0.540834
vt 0.239172 0.539528
vt 0.276066 0.219391
vt 0.239438 0.200363
vt 0.230542 0.000000
vt 0.363384 0.512866
vt 0.448189 0.488387
vt 0.469306 0.550392
vt 0.184376 0.452413
vt 0.113660 0.439134
vt 0.178384 0.325460
vt 0.293805 0.452413
vt 0.363639 0.439134
vt 0.198692 0.219391
vt 0.113404 0.512866
vt 0.021547 0.488387
vt 0.209067 0.540835
vt 0.280860 0.433447
vt 0.297421 0.325460
vt 0.243549 0.437741
vt 0.200938 0.433447
vt 0.197121 0.325962
vt 0.262623 0.233284
vt 0.281072 0.325962
vt 0.214716 0.233284
vt 0.240267 0.220407
vt 0.000000 0.550392
vt 0.732144 0.751896
vt 0.743555 0.643584
vt 0.743555 0.751942
vt 0.753742 0.751942
vt 0.743555 0.658756
vt 0.754966 0.658710
vt 0.198441 0.676794
vt 0.211166 0.637168
vt 0.222453 0.637038
vt 0.244795 0.436068
vt 0.282318 0.324289
vt 0.282106 0.431775
vt 0.198367 0.324289
vt 0.202183 0.431775
vt 0.242984 0.302022
vt 0.743555 0.550397
vt 0.732144 0.643537
vt 0.742331 0.550351
vt 0.211166 0.717341
vt 0.187154 0.676924
vt 0.754966 0.550351
vt 0.222453 0.717211
vt 0.361136 0.712967
vt 0.322742 0.674573
vt 0.361136 0.674573
vt 0.437728 0.712984
vt 0.399414 0.674573
vt 0.437728 0.674592
vt 0.671435 0.759358
vt 0.658307 0.737283
vt 0.671435 0.737208
vt 0.322742 0.712985
vt 0.361055 0.751359
vt 0.322742 0.751378
vt 0.398832 0.751633
vt 0.361136 0.713040
vt 0.398832 0.713256
vt 0.437573 0.751359
vt 0.399414 0.713116
vt 0.437573 0.712984
vt 0.369029 0.705107
vt 0.361136 0.674664
vt 0.369029 0.682559
vt 0.391521 0.705054
vt 0.361136 0.713040
vt 0.399414 0.674573
vt 0.391521 0.682505
vt 0.399414 0.712949
vt 0.300250 0.713020
vt 0.322742 0.735515
vt 0.300250 0.735569
vt 0.059514 0.722087
vt 0.072619 0.744639
vt 0.059514 0.744645
vt 0.300250 0.735569
vt 0.313356 0.758134
vt 0.300250 0.758127
vt 0.658307 0.759675
vt 0.645181 0.737208
vt 0.658307 0.737253
vt 0.035443 0.749780
vt 0.059514 0.722219
vt 0.059514 0.749918
vt 0.358291 0.550392
vt 0.322742 0.674573
vt 0.322742 0.550409
vt 0.000000 0.722164
vt 0.035443 0.757614
vt 0.000000 0.757698
vt 0.393839 0.550409
vt 0.358291 0.674556
vt 0.358291 0.550392
vt 0.152250 0.637038
vt 0.187154 0.761607
vt 0.152250 0.761407
vt 0.076148 0.637127
vt 0.111480 0.761368
vt 0.076148 0.761490
vt 0.233840 0.718940
vt 0.263872 0.713423
vt 0.258355 0.718940
vt 0.258355 0.743455
vt 0.263872 0.748972
vt 0.228323 0.748972
vt 0.233840 0.743455
vt 0.228323 0.713423
vt 0.721327 0.754800
vt 0.696812 0.730285
vt 0.721327 0.730285
vt 0.696812 0.730285
vt 0.721177 0.702503
vt 0.721177 0.730200
vt 0.437728 0.702227
vt 0.462243 0.674585
vt 0.462243 0.702239
vt 0.312543 0.672755
vt 0.288028 0.700421
vt 0.288028 0.672767
vt 0.461798 0.730159
vt 0.437728 0.757720
vt 0.437728 0.730021
vt 0.429388 0.550392
vt 0.393839 0.674573
vt 0.393839 0.550409
vt 0.187154 0.717425
vt 0.222597 0.752874
vt 0.187154 0.752958
vt 0.464937 0.550409
vt 0.429388 0.674556
vt 0.429388 0.550392
vt 0.111480 0.637004
vt 0.146384 0.761574
vt 0.111480 0.761373
vt 0.696812 0.550474
vt 0.732144 0.674715
vt 0.696812 0.674837
vt 0.269389 0.718940
vt 0.299422 0.713423
vt 0.293905 0.718940
vt 0.293905 0.743455
vt 0.299422 0.748973
vt 0.263872 0.748973
vt 0.269389 0.743455
vt 0.263872 0.713423
vt 0.645181 0.761724
vt 0.620665 0.737208
vt 0.645181 0.737208
vt 0.462093 0.702239
vt 0.437728 0.730021
vt 0.437728 0.702323
vt 0.288028 0.672743
vt 0.312543 0.645102
vt 0.312543 0.672755
vt 0.696812 0.702502
vt 0.721327 0.674837
vt 0.721327 0.702491
vt 0.322742 0.712967
vt 0.399414 0.712966
vt 0.658307 0.759433
vt 0.361136 0.751416
vt 0.399414 0.751492
vt 0.322742 0.712967
vt 0.072619 0.722081
vt 0.313356 0.735575
vt 0.645181 0.759629
vt 0.035443 0.722081
vt 0.358291 0.674556
vt 0.035443 0.722081
vt 0.393839 0.674573
vt 0.187154 0.637238
vt 0.111480 0.637004
vt 0.696812 0.754800
vt 0.696812 0.702587
vt 0.437728 0.674573
vt 0.312543 0.700409
vt 0.461798 0.757858
vt 0.429388 0.674556
vt 0.222597 0.717341
vt 0.464937 0.674573
vt 0.146384 0.637205
vt 0.732144 0.550351
vt 0.620665 0.761724
vt 0.462093 0.729936
vt 0.288028 0.645090
vt 0.696812 0.674849
vt 0.764159 0.452134
vt 0.827287 0.437531
vt 0.827711 0.511265
vt 0.544985 0.762719
vt 0.620665 0.775576
vt 0.570387 1.000000
vt 0.712711 0.453586
vt 0.650952 0.324655
vt 0.715079 0.294801
vt 0.675902 0.538939
vt 0.651737 0.452134
vt 0.619814 0.668266
vt 0.570541 0.554581
vt 0.620665 0.550351
vt 0.768549 0.324655
vt 0.911501 0.488344
vt 0.932931 0.550351
vt 0.580333 0.437531
vt 0.620665 0.737208
vt 0.679332 0.663804
vt 0.696812 0.737208
vt 0.076148 0.722080
vt 0.017712 0.657808
vt 0.067974 0.656469
vt 0.544134 0.882085
vt 0.494862 0.995770
vt 0.469561 0.877325
vt 0.748919 0.236279
vt 0.714927 0.221675
vt 0.708293 0.000000
vt 0.672481 0.236279
vt 0.544985 0.774776
vt 0.469306 0.787632
vt 0.494707 0.550351
vt 0.031018 0.550392
vt 0.228323 0.567760
vt 0.275532 0.550392
vt 0.275532 0.645090
vt 0.629076 0.662248
vt 0.666150 0.550351
vt 0.580757 0.511265
vt 0.490024 0.488344
vt 0.322742 0.645090
vt 0.275532 0.627722
vt 0.322742 0.550392
vt 0.258067 0.645090
vt 0.288028 0.708009
vt 0.258250 0.713423
vt 0.228323 0.708150
vt 0.152250 0.637004
vt 0.089981 0.552161
vt 0.149838 0.550392
vt 0.228323 0.550392
vt 0.168440 0.636936
vt 0.152250 0.552510
vt 0.734701 0.538939
vt 0.706315 0.539748
vt 0.545240 0.673026
vt 0.000000 0.722080
vt 0.544985 1.000000
vt 0.288028 0.648152
vt 0.228323 0.648293
vt 0.076148 0.637004
vt 0.228323 0.637038
vn -0.0851 -0.2860 0.9544
vn -0.5313 0.3407 0.7757
vn -0.3175 0.1099 0.9419
vn 0.0407 0.1140 0.9926
vn -0.0623 0.0000 0.9981
vn 0.5313 0.3407 0.7757
vn 0.3453 0.0000 0.9385
vn 0.4466 -0.1230 0.8863
vn -0.7560 0.0472 0.6529
vn -0.4987 -0.3908 0.7737
vn 0.5162 0.1457 0.8440
vn 0.4595 -0.3210 0.8282
vn -0.5147 0.1625 0.8418
vn 0.5277 0.1679 0.8327
vn 0.5999 0.3040 0.7401
vn -0.4965 0.2105 0.8421
vn -0.4466 -0.1230 0.8863
vn -0.3453 0.0000 0.9385
vn 0.0623 0.0000 0.9981
vn -0.0407 0.1140 0.9926
vn 0.3175 0.1099 0.9419
vn 0.0851 -0.2860 0.9544
vn -0.5162 0.1457 0.8440
vn -0.4595 -0.3210 0.8282
vn 0.7560 0.0472 0.6529
vn 0.4987 -0.3908 0.7737
vn -0.5277 0.1679 0.8327
vn 0.5147 0.1625 0.8418
vn 0.4965 0.2105 0.8421
vn -0.5999 0.3040 0.7401
vn 0.9998 -0.0183 0.0033
vn -0.9812 0.1898 -0.0342
vn -0.1897 -0.9663 0.1743
vn -0.4994 0.1478 0.8537
vn 0.4994 0.1478 0.8537
vn 0.5892 0.2574 0.7659
vn -0.5724 0.2688 0.7747
vn -0.9998 -0.0183 0.0033
vn 0.9812 0.1898 -0.0342
vn 0.1897 -0.9663 0.1743
vn -0.5309 0.1293 0.8375
vn 0.5309 0.1293 0.8375
vn 0.5724 0.2688 0.7747
vn -0.5892 0.2574 0.7659
vn 0.0000 1.0000 0.0000
vn 1.0000 -0.0000 0.0000
vn 0.0000 0.0000 -1.0000
vn -1.0000 0.0000 0.0000
vn 0.0000 0.0000 1.0000
vn 0.0000 -1.0000 0.0000
vn 0.2978 0.0000 -0.9546
vn -0.9857 0.1632 -0.0422
vn -0.3953 -0.1004 -0.9130
vn -0.4005 -0.1031 -0.9105
vn -0.3940 -0.0998 -0.9137
vn -0.3930 -0.2917 -0.8720
vn -0.8644 0.5029 -0.0021
vn -0.8633 0.5046 -0.0086
vn -0.8647 0.5023 0.0000
vn 0.4005 -0.1031 -0.9105
vn 0.3953 -0.1004 -0.9130
vn 0.3940 -0.0998 -0.9137
vn 0.1783 0.0617 -0.9820
vn -0.3175 -0.1056 -0.9424
vn 0.6507 -0.7593 0.0004
vn 0.6500 -0.7600 0.0021
vn 0.6499 -0.7601 0.0023
vn -0.6507 -0.7593 0.0004
vn -0.6499 -0.7600 0.0021
vn -0.6509 -0.7592 0.0000
vn 0.8644 0.5029 -0.0021
vn 0.8633 0.5046 -0.0086
vn 0.8631 0.5050 -0.0103
vn 0.5295 0.1068 -0.8416
vn -0.5295 0.1068 -0.8416
vn 0.9857 0.1632 -0.0422
vn -0.3300 -0.9440 0.0000
vn 0.4926 0.8703 0.0000
vn 0.3300 -0.9440 0.0000
vn -0.1943 0.0000 -0.9809
vn -0.4926 0.8703 0.0000
vn -0.0262 -0.9991 0.0347
vn 0.0262 -0.9991 0.0347
vn -0.9620 -0.2731 0.0000
vn 0.9548 -0.2951 0.0358
vn 0.1733 -0.3866 -0.9058
vn 0.9805 0.1904 -0.0492
vn -0.4996 -0.0168 -0.8661
vn 0.4466 0.0282 -0.8943
vn -0.9730 0.2308 -0.0047
vn 0.3175 -0.1056 -0.9424
vn -0.4022 -0.1039 -0.9096
vn -0.1733 -0.3866 -0.9058
vn -0.8631 0.5050 -0.0103
vn 0.4022 -0.1039 -0.9096
vn 0.1943 0.0000 -0.9809
vn -0.2978 0.0000 -0.9546
vn 0.6509 -0.7592 0.0000
vn -0.6499 -0.7601 0.0023
vn 0.8647 0.5023 0.0000
vn -0.1783 0.0617 -0.9820
vn 0.0468 -0.9989 0.0000
vn -0.0468 -0.9989 0.0000
vn -0.9548 -0.2951 0.0358
vn 0.9620 -0.2731 0.0000
vn 0.3930 -0.2917 -0.8720
vn 0.9730 0.2308 -0.0047
vn -0.4466 0.0282 -0.8943
vn 0.4996 -0.0168 -0.8661
vn -0.9805 0.1904 -0.0492
usemtl Material.003
s 1
f 1/1/1 2/2/1 3/3/1
f 4/4/2 5/5/2 6/6/2
f 7/7/3 8/8/3 9/9/3
f 10/10/4 11/11/4 12/12/4
f 13/13/5 14/14/5 7/7/5
f 5/5/6 15/15/6 6/6/6
f 16/16/7 17/17/7 11/11/7
f 1/1/8 18/18/8 10/10/8
f 19/19/9 20/20/9 13/13/9
f 19/19/10 1/1/10 21/21/10
f 22/22/11 12/12/11 23/23/11
f 22/22/12 1/1/12 10/10/12
f 24/24/13 20/20/13 25/25/13
f 26/26/14 12/12/14 15/15/14
f 26/26/15 5/5/15 27/27/15
f 24/24/16 5/5/16 4/4/16
f 1/1/17 13/13/17 2/2/17
f 7/7/18 14/14/18 8/8/18
f 10/10/19 16/16/19 11/11/19
f 13/13/20 20/20/20 14/14/20
f 16/16/21 28/28/21 17/17/21
f 1/1/22 3/3/22 18/18/22
f 19/19/23 25/25/23 20/20/23
f 19/19/24 13/13/24 1/1/24
f 22/22/25 10/10/25 12/12/25
f 22/22/26 21/21/26 1/1/26
f 24/24/27 4/4/27 20/20/27
f 26/26/28 23/23/28 12/12/28
f 26/26/29 15/15/29 5/5/29
f 24/24/30 27/27/30 5/5/30
usemtl Material.001
f 22/29/31 29/30/31 30/31/31
f 24/32/32 25/33/32 31/34/32
f 21/35/33 32/36/33 19/37/33
f 33/38/34 31/39/34 32/40/34
f 29/41/35 33/38/35 30/42/35
f 34/43/36 26/26/36 27/27/36
f 34/43/37 24/24/37 31/39/37
f 19/44/38 31/34/38 25/33/38
f 23/45/39 26/46/39 29/30/39
f 21/35/40 30/47/40 33/48/40
f 22/29/31 23/45/31 29/30/31
f 21/35/33 33/48/33 32/36/33
f 33/38/41 34/43/41 31/39/41
f 29/41/42 34/43/42 33/38/42
f 34/43/43 29/41/43 26/26/43
f 34/43/44 27/27/44 24/24/44
f 19/44/38 32/49/38 31/34/38
f 21/35/40 22/50/40 30/47/40
usemtl Material.002
f 35/51/45 36/52/45 37/53/45
f 38/54/46 39/55/46 36/56/46
f 40/57/47 41/58/47 42/59/47
f 43/60/48 37/61/48 44/62/48
f 39/63/47 37/64/47 36/65/47
f 38/66/49 43/67/49 45/68/49
f 46/69/50 45/70/50 42/71/50
f 47/72/50 39/73/50 46/69/50
f 42/71/50 43/74/50 40/75/50
f 40/75/50 44/76/50 47/72/50
f 41/77/50 48/78/50 49/79/50
f 42/80/48 49/81/48 46/82/48
f 47/83/46 50/84/46 40/85/46
f 46/86/49 48/87/49 47/88/49
f 51/89/47 52/90/47 53/91/47
f 54/92/46 55/93/46 56/94/46
f 57/95/50 58/96/50 55/97/50
f 59/98/48 60/99/48 58/100/48
f 55/101/47 60/102/47 56/103/47
f 54/104/49 59/105/49 57/106/49
f 61/107/45 60/108/45 62/109/45
f 53/110/45 60/108/45 63/111/45
f 53/110/45 54/112/45 51/113/45
f 51/113/45 56/114/45 61/107/45
f 52/115/45 64/116/45 65/117/45
f 62/118/49 64/119/49 61/120/49
f 61/121/48 66/122/48 51/123/48
f 53/124/46 65/125/46 62/126/46
f 67/127/47 68/128/47 69/129/47
f 70/130/46 71/131/46 72/132/46
f 73/133/50 74/134/50 71/135/50
f 75/136/48 76/137/48 74/138/48
f 71/139/47 76/140/47 72/141/47
f 70/142/49 75/143/49 73/144/49
f 77/145/45 76/146/45 78/147/45
f 69/148/45 76/146/45 79/149/45
f 69/148/45 70/150/45 67/151/45
f 67/151/45 72/152/45 77/145/45
f 68/153/45 80/154/45 81/155/45
f 78/156/49 80/157/49 77/158/49
f 77/159/48 82/160/48 67/161/48
f 69/162/46 81/163/46 78/164/46
f 35/51/45 38/165/45 36/52/45
f 38/54/46 45/166/46 39/55/46
f 40/57/47 50/167/47 41/58/47
f 43/60/48 35/51/48 37/61/48
f 39/63/47 44/168/47 37/64/47
f 38/66/49 35/169/49 43/67/49
f 46/69/50 39/73/50 45/70/50
f 47/72/50 44/76/50 39/73/50
f 42/71/50 45/70/50 43/74/50
f 40/75/50 43/74/50 44/76/50
f 41/77/50 50/170/50 48/78/50
f 42/80/48 41/171/48 49/81/48
f 47/83/46 48/172/46 50/84/46
f 46/86/49 49/173/49 48/87/49
f 51/89/47 66/174/47 52/90/47
f 54/92/46 57/175/46 55/93/46
f 57/95/50 59/176/50 58/96/50
f 59/98/48 63/177/48 60/99/48
f 55/101/47 58/178/47 60/102/47
f 54/104/49 63/179/49 59/105/49
f 61/107/45 56/114/45 60/108/45
f 53/110/45 62/109/45 60/108/45
f 53/110/45 63/111/45 54/112/45
f 51/113/45 54/112/45 56/114/45
f 52/115/45 66/180/45 64/116/45
f 62/118/49 65/181/49 64/119/49
f 61/121/48 64/182/48 66/122/48
f 53/124/46 52/183/46 65/125/46
f 67/127/47 82/184/47 68/128/47
f 70/130/46 73/185/46 71/131/46
f 73/133/50 75/186/50 74/134/50
f 75/136/48 79/187/48 76/137/48
f 71/139/47 74/188/47 76/140/47
f 70/142/49 79/189/49 75/143/49
f 77/145/45 72/152/45 76/146/45
f 69/148/45 78/147/45 76/146/45
f 69/148/45 79/149/45 70/150/45
f 67/151/45 70/150/45 72/152/45
f 68/153/45 82/190/45 80/154/45
f 78/156/49 81/191/49 80/157/49
f 77/159/48 80/192/48 82/160/48
f 69/162/46 68/193/46 81/163/46
usemtl Material.004
f 83/194/51 84/195/51 85/196/51
f 86/197/52 4/198/52 6/199/52
f 87/200/53 88/201/54 89/202/55
f 87/200/56 90/203/56 91/204/56
f 20/205/57 92/206/58 14/207/59
f 93/208/60 87/200/61 89/202/62
f 85/196/63 17/209/63 28/210/63
f 91/204/64 92/211/64 88/201/64
f 13/212/65 94/213/66 91/214/67
f 10/215/68 85/216/69 16/217/70
f 12/218/71 84/219/72 93/220/73
f 95/221/74 96/222/74 6/223/74
f 96/222/75 86/224/75 6/223/75
f 15/225/76 95/226/76 6/227/76
f 16/217/77 85/216/77 28/228/77
f 84/229/78 11/230/78 17/231/78
f 94/213/79 7/232/79 9/233/79
f 94/234/80 8/235/80 92/211/80
f 14/236/81 92/237/81 8/238/81
f 3/239/82 90/240/82 97/241/82
f 98/242/83 3/239/83 97/241/83
f 13/243/84 90/244/84 2/245/84
f 10/246/85 98/247/85 83/248/85
f 87/200/86 98/249/86 97/250/86
f 12/218/87 95/226/87 15/225/87
f 89/202/88 86/224/88 96/222/88
f 89/202/89 95/221/89 93/208/89
f 20/205/90 86/197/90 88/251/90
f 83/194/91 93/208/91 84/195/91
f 87/200/53 91/204/92 88/201/54
f 87/200/93 97/250/93 90/203/93
f 20/205/57 88/251/94 92/206/58
f 93/208/60 83/194/95 87/200/61
f 85/196/96 84/195/96 17/209/96
f 91/204/97 94/234/97 92/211/97
f 13/212/65 7/232/98 94/213/66
f 10/215/68 83/252/99 85/216/69
f 12/218/71 11/253/100 84/219/72
f 94/234/101 9/9/101 8/235/101
f 3/239/102 2/254/102 90/240/102
f 98/242/103 18/255/103 3/239/103
f 13/243/104 91/256/104 90/244/104
f 10/246/105 18/257/105 98/247/105
f 87/200/106 83/194/106 98/249/106
f 12/218/107 93/220/107 95/226/107
f 89/202/108 88/201/108 86/224/108
f 89/202/109 96/222/109 95/221/109
f 20/205/110 4/198/110 86/197/110
